HIERARCHY
ROOT Hips
{
	OFFSET 0.00000 0.00000 0.00000
	CHANNELS 6 Xposition Yposition Zposition Zrotation Yrotation Xrotation 
	JOINT LHipJoint
	{
		OFFSET 0 0 0
		CHANNELS 3 Zrotation Yrotation Xrotation
		JOINT LeftUpLeg
		{
			OFFSET 1.56857 -1.73443 1.15205
			CHANNELS 3 Zrotation Yrotation Xrotation
			JOINT LeftLeg
			{
				OFFSET 2.39362 -6.57643 0.00000
				CHANNELS 3 Zrotation Yrotation Xrotation
				JOINT LeftFoot
				{
					OFFSET 2.50952 -6.89485 0.00000
					CHANNELS 3 Zrotation Yrotation Xrotation
					JOINT LeftToeBase
					{
						OFFSET 0.17171 -0.47178 1.88682
						CHANNELS 3 Zrotation Yrotation Xrotation
						End Site
						{
							OFFSET 0.00000 -0.00000 0.98146
						}
					}
				}
			}
		}
	}
	JOINT RHipJoint
	{
		OFFSET 0 0 0
		CHANNELS 3 Zrotation Yrotation Xrotation
		JOINT RightUpLeg
		{
			OFFSET -1.28153 -1.73443 1.15205
			CHANNELS 3 Zrotation Yrotation Xrotation
			JOINT RightLeg
			{
				OFFSET -2.26861 -6.23296 0.00000
				CHANNELS 3 Zrotation Yrotation Xrotation
				JOINT RightFoot
				{
					OFFSET -2.54143 -6.98254 0.00000
					CHANNELS 3 Zrotation Yrotation Xrotation
					JOINT RightToeBase
					{
						OFFSET -0.23309 -0.64041 1.93119
						CHANNELS 3 Zrotation Yrotation Xrotation
						End Site
						{
							OFFSET -0.00000 -0.00000 1.02013
						}
					}
				}
			}
		}
	}
	JOINT LowerBack
	{
		OFFSET 0 0 0
		CHANNELS 3 Zrotation Yrotation Xrotation
		JOINT Spine
		{
			OFFSET -0.07096 2.10460 -0.27878
			CHANNELS 3 Zrotation Yrotation Xrotation
			JOINT Spine1
			{
				OFFSET -0.00826 2.13662 -0.08279
				CHANNELS 3 Zrotation Yrotation Xrotation
				JOINT Neck
				{
					OFFSET 0 0 0
					CHANNELS 3 Zrotation Yrotation Xrotation
					JOINT Neck1
					{
						OFFSET 0.03239 1.77799 0.24435
						CHANNELS 3 Zrotation Yrotation Xrotation
						JOINT Head
						{
							OFFSET 0.01026 1.74194 -0.49664
							CHANNELS 3 Zrotation Yrotation Xrotation
							End Site
							{
								OFFSET 0.00170 1.83057 -0.19653
							}
						}
					}
				}
				JOINT LeftShoulder
				{
					OFFSET 0 0 0
					CHANNELS 3 Zrotation Yrotation Xrotation
					JOINT LeftArm
					{
						OFFSET 3.19178 1.35907 -0.31412
						CHANNELS 3 Zrotation Yrotation Xrotation
						JOINT LeftForeArm
						{
							OFFSET 4.85247 -0.00000 -0.00000
							CHANNELS 3 Zrotation Yrotation Xrotation
							JOINT LeftHand
							{
								OFFSET 3.55584 -0.00000 0.00000
								CHANNELS 3 Zrotation Yrotation Xrotation
								JOINT LeftFingerBase
								{
									OFFSET 0 0 0
									CHANNELS 3 Zrotation Yrotation Xrotation
									JOINT LeftHandIndex1
									{
										OFFSET 0.69320 -0.00000 0.00000
										CHANNELS 3 Zrotation Yrotation Xrotation
										End Site
										{
											OFFSET 0.55888 -0.00000 0.00000
										}
									}
								}
								JOINT LThumb
								{
									OFFSET 0 0 0
									CHANNELS 3 Zrotation Yrotation Xrotation
									End Site
									{
										OFFSET 0.56741 -0.00000 0.56741
									}
								}
							}
						}
					}
				}
				JOINT RightShoulder
				{
					OFFSET 0 0 0
					CHANNELS 3 Zrotation Yrotation Xrotation
					JOINT RightArm
					{
						OFFSET -3.28999 1.24191 -0.26899
						CHANNELS 3 Zrotation Yrotation Xrotation
						JOINT RightForeArm
						{
							OFFSET -4.64462 -0.00000 0.00000
							CHANNELS 3 Zrotation Yrotation Xrotation
							JOINT RightHand
							{
								OFFSET -3.40703 -0.00000 0.00000
								CHANNELS 3 Zrotation Yrotation Xrotation
								JOINT RightFingerBase
								{
									OFFSET 0 0 0
									CHANNELS 3 Zrotation Yrotation Xrotation
									JOINT RightHandIndex1
									{
										OFFSET -0.61958 -0.00000 0.00000
										CHANNELS 3 Zrotation Yrotation Xrotation
										End Site
										{
											OFFSET -0.49952 -0.00000 0.00000
										}
									}
								}
								JOINT RThumb
								{
									OFFSET 0 0 0
									CHANNELS 3 Zrotation Yrotation Xrotation
									End Site
									{
										OFFSET -0.50715 -0.00000 0.50715
									}
								}
							}
						}
					}
				}
			}
		}
	}
}
MOTION
Frames: 14
Frame Time: .0083333
0.6032 16.8677 -0.9073 476.6780 87.6663 479.4550 0.0000 0.0000 0.0000 -11.7831 -7.3864 -17.9925 1.7634 8.3549 23.7973 0.1479 3.7097 -9.5983 0.1610 -2.5854 -7.1266 0.0000 0.0000 0.0000 10.9433 -4.7592 18.3010 -0.0549 -1.5127 4.1606 -1.5515 1.5225 -23.1169 -0.1868 2.7838 -7.6774 3.2741 -0.0155 6.8234 1.0864 0.3465 6.7492 -0.7186 0.3880 3.1705 2.7819 1.9418 -23.3265 -1.8942 2.8102 29.8592 -0.6747 1.4019 14.2032 -0.0000 -0.0000 0.0000 -1.0485 -57.1344 4.2450 23.9144 -35.0736 -7.6573 -0.0000 0.0000 -8.7913 8.4687 -20.2118 -2.9447 -7.1250 0.0000 -0.0000 -12.7918 9.9570 10.6637 -0.0000 -0.0000 0.0000 -1.9159 64.9752 -6.2325 -22.9036 33.9832 -7.0843 0.0000 -0.0000 -3.6937 0.3989 -31.2622 -0.2070 7.1250 -0.0000 -0.0000 35.1792 -57.5594 -11.7843
0.6871 16.8703 -0.9648 464.4010 87.4696 467.1860 0.0000 0.0000 0.0000 -12.4677 -7.2946 -17.8466 1.8346 8.5128 24.2828 0.1777 3.6660 -10.1784 0.1818 -2.7460 -7.5723 0.0000 0.0000 0.0000 10.1267 -4.6791 18.4227 -0.0616 -1.6014 4.4052 -1.5043 1.8053 -22.6800 -0.2147 2.9832 -8.2320 2.8142 0.1323 6.8602 0.9253 0.5278 6.8296 -0.6344 0.4657 3.2363 2.6403 1.8537 -23.3852 -1.7165 2.6648 29.7633 -0.6063 1.3460 14.1638 -0.0000 -0.0000 0.0000 -0.9250 -57.2560 4.2971 23.9509 -35.1123 -7.6783 -0.0000 0.0000 -9.0812 8.6059 -20.3057 -3.0064 -7.1250 0.0000 -0.0000 -12.7043 9.8531 10.6143 -0.0000 -0.0000 0.0000 -1.6515 64.8440 -6.1288 -22.8677 33.9438 -7.0643 0.0000 -0.0000 -3.6251 0.3972 -31.2664 -0.2062 7.1250 -0.0000 -0.0000 35.1813 -57.5631 -11.7884
0.7715 16.8782 -1.0180 455.8850 87.2639 458.7020 0.0000 0.0000 0.0000 -13.0129 -7.0649 -17.6183 1.8665 8.5823 24.4971 0.2021 3.5558 -10.5671 0.2152 -2.9864 -8.2409 0.0000 0.0000 0.0000 9.7620 -4.1694 18.5999 -0.0714 -1.7244 4.7446 -1.4727 1.4337 -22.5309 -0.2507 3.2217 -8.8965 2.3431 0.1971 6.8907 0.8272 0.5990 6.9307 -0.4742 0.4873 3.3221 2.4510 1.8364 -23.4687 -1.5062 2.6302 29.6817 -0.4956 1.3361 14.1382 -0.0000 0.0000 0.0000 -0.8517 -57.1864 4.1991 23.9631 -35.1252 -7.6853 -0.0000 0.0000 -9.2389 8.6803 -20.3606 -3.0406 -7.1250 0.0000 -0.0000 -12.6570 9.7929 10.5884 -0.0000 0.0000 0.0000 -1.6761 64.8627 -6.0354 -22.8096 33.8800 -7.0319 0.0000 -0.0000 -3.7533 0.0514 -31.0593 -0.0265 7.1250 -0.0000 -0.0000 34.6665 -57.4669 -11.5031
0.8528 16.8902 -1.0684 445.4670 87.3015 448.3200 0.0000 0.0000 0.0000 -13.1280 -6.6851 -17.3351 1.8745 8.5995 24.5504 0.2296 3.4276 -10.9812 0.1945 -2.8400 -7.8336 0.0000 0.0000 0.0000 9.7962 -3.6031 18.6066 -0.0852 -1.8824 5.1808 -1.4275 0.8016 -22.3528 -0.3853 3.9863 -11.0381 2.2733 0.3565 7.0547 0.7141 0.8110 6.8444 -0.5634 0.5886 3.1466 2.5379 1.8428 -23.1343 -1.4547 2.6027 29.6365 -0.4970 1.3468 14.0471 0.0000 0.0000 0.0000 -1.1219 -57.1827 4.7857 24.0753 -35.2438 -7.7500 -0.0000 0.0000 -9.4817 8.5276 -20.3083 -2.9790 -7.1250 0.0000 -0.0000 -12.7540 9.8573 10.6569 0.0000 0.0000 0.0000 -0.7772 64.7356 -5.1650 -22.7389 33.8020 -6.9925 0.0000 -0.0000 -3.8720 -0.3357 -30.7003 0.1714 7.1250 -0.0000 -0.0000 33.9813 -57.2524 -11.0562
0.9334 16.9061 -1.1219 434.7200 87.2475 437.6010 0.0000 0.0000 0.0000 -13.2619 -6.2961 -16.9723 1.8662 8.5817 24.4952 0.2621 3.2193 -11.4067 0.1285 -2.3103 -6.3641 0.0000 0.0000 0.0000 9.6534 -3.2593 18.5311 -0.1002 -2.0415 5.6204 -1.3725 0.6932 -21.9437 -0.4231 4.1749 -11.5691 2.1716 0.4634 7.1922 0.6384 0.9550 6.8828 -0.5921 0.6590 3.1139 2.6668 1.9267 -23.1542 -1.5900 2.7146 29.5890 -0.5526 1.3883 14.0383 -0.0000 -0.0000 0.0000 -1.1729 -57.0186 4.9867 24.1743 -35.3481 -7.8072 -0.0000 0.0000 -9.6751 8.2907 -20.2320 -2.8849 -7.1250 0.0000 -0.0000 -12.9047 9.9522 10.7642 -0.0000 -0.0000 0.0000 -0.5284 64.6951 -4.7802 -22.7348 33.7975 -6.9902 0.0000 -0.0000 -3.9715 -0.4633 -30.5787 0.2357 7.1250 -0.0000 -0.0000 33.7539 -57.1784 -10.9076
1.0198 16.9254 -1.1750 426.9890 86.9955 429.8700 0.0000 0.0000 0.0000 -13.6250 -5.8598 -16.5346 1.8444 8.5341 24.3484 0.2888 3.0332 -11.7306 0.1056 -2.0954 -5.7693 0.0000 0.0000 0.0000 9.3177 -2.9304 18.5215 -0.1196 -2.2295 6.1404 -1.3421 0.9633 -21.6147 -0.3189 3.6297 -10.0372 1.9031 0.5326 7.2232 0.5419 1.0407 6.9942 -0.5440 0.6967 3.2124 2.6769 1.9501 -23.3135 -1.6991 2.7739 29.6098 -0.5863 1.3960 14.0851 -0.0000 -0.0000 0.0000 -1.1784 -56.8022 4.9754 24.2560 -35.4338 -7.8545 -0.0000 0.0000 -9.6971 7.9774 -20.0967 -2.7568 -7.1250 0.0000 -0.0000 -13.1044 10.1108 10.8970 -0.0000 -0.0000 0.0000 -0.4788 64.6865 -4.5131 -22.7815 33.8490 -7.0162 0.0000 -0.0000 -3.9607 -0.3321 -30.8523 0.1703 7.1250 -0.0000 -0.0000 34.1179 -57.3775 -11.2145
1.1066 16.9462 -1.2235 420.3590 86.7493 423.2540 0.0000 0.0000 0.0000 -13.9116 -5.3959 -16.1546 1.8267 8.4953 24.2288 0.3108 2.9264 -12.0223 0.1125 -2.1624 -5.9546 0.0000 0.0000 0.0000 9.1040 -2.5975 18.4811 -0.1430 -2.4372 6.7155 -1.3194 1.1278 -21.3810 -0.2752 3.3745 -9.3232 1.6634 0.6289 7.3026 0.4620 1.1615 7.0203 -0.4985 0.7494 3.1952 2.5754 1.9648 -23.2940 -1.6190 2.8089 29.6072 -0.5304 1.4107 14.0775 0.0000 0.0000 0.0000 -1.2302 -56.7132 5.1868 24.3062 -35.4863 -7.8836 -0.0000 0.0000 -9.7481 7.7144 -19.9447 -2.6456 -7.1250 0.0000 -0.0000 -13.2729 10.2809 10.9981 0.0000 0.0000 0.0000 -0.2126 64.7344 -4.1605 -22.6934 33.7518 -6.9672 0.0000 -0.0000 -3.7968 -0.0176 -31.1360 0.0091 7.1250 -0.0000 -0.0000 34.6693 -57.5447 -11.5714
1.1876 16.9680 -1.2686 414.0110 86.4663 416.9780 0.0000 0.0000 0.0000 -14.1322 -4.9916 -15.8312 1.8027 8.4424 24.0661 0.3290 2.9706 -12.3414 0.1217 -2.2491 -6.1947 0.0000 0.0000 0.0000 8.9447 -2.2562 18.3272 -0.1687 -2.6460 7.2946 -1.2777 1.0711 -21.0490 -0.3185 3.6278 -10.0319 1.4611 0.7796 7.4270 0.3661 1.3541 6.9776 -0.4960 0.8376 3.0831 2.5320 2.0091 -23.1248 -1.4948 2.8508 29.5208 -0.4667 1.4429 14.0020 0.0000 0.0000 0.0000 -1.2065 -56.8037 5.5171 24.2821 -35.4612 -7.8696 -0.0000 0.0000 -9.8504 7.6357 -19.8719 -2.6092 -7.1250 0.0000 -0.0000 -13.3237 10.3584 11.0211 0.0000 0.0000 0.0000 0.1612 64.7213 -3.7433 -22.4781 33.5132 -6.8480 0.0000 -0.0000 -3.5715 0.1285 -31.0366 -0.0662 7.1250 -0.0000 -0.0000 34.7198 -57.4320 -11.4936
1.2676 16.9906 -1.3155 408.8640 86.2045 411.9310 0.0000 0.0000 0.0000 -14.3511 -4.6611 -15.4600 1.7604 8.3481 23.7765 0.3367 3.1020 -12.5479 0.1382 -2.3957 -6.6006 0.0000 0.0000 0.0000 8.6777 -2.1650 18.0110 -0.1978 -2.8642 7.9010 -1.2115 1.0991 -20.4773 -0.3590 3.8491 -10.6526 1.3667 0.9283 7.4520 0.2492 1.5495 7.0016 -0.5727 0.9346 3.0992 2.6031 2.0223 -23.1462 -1.4477 2.8196 29.4636 -0.4660 1.4429 13.9814 -0.0000 0.0000 0.0000 -1.0562 -56.9018 5.6678 24.3025 -35.4825 -7.8814 -0.0000 0.0000 -9.8602 7.5542 -19.8017 -2.5723 -7.1250 0.0000 -0.0000 -13.3764 10.4335 11.0462 -0.0000 0.0000 0.0000 0.4770 64.5764 -3.4832 -22.3504 33.3708 -6.7776 0.0000 -0.0000 -3.1786 0.2345 -31.2666 -0.1217 7.1250 -0.0000 -0.0000 35.0267 -57.5981 -11.7580
1.3461 17.0118 -1.3634 403.5520 86.0364 406.7570 0.0000 0.0000 0.0000 -14.4298 -4.3829 -15.1441 1.7217 8.2605 23.5081 0.3442 3.1819 -12.7161 0.1469 -2.4699 -6.8061 0.0000 0.0000 0.0000 8.5227 -2.1516 17.5491 -0.2372 -3.1342 8.6525 -1.1639 1.3145 -20.0017 -0.3178 3.6236 -10.0201 1.3770 1.0223 7.3995 0.1861 1.6751 7.0378 -0.6471 1.0000 3.1714 2.6668 2.0335 -23.1503 -1.4375 2.7991 29.3740 -0.4771 1.4408 13.9441 -0.0000 -0.0000 0.0000 -1.0247 -56.7293 5.8667 24.4531 -35.6398 -7.9691 -0.0000 0.0000 -9.8534 7.1064 -19.7360 -2.4107 -7.1250 0.0000 -0.0000 -13.6621 10.5324 11.2682 -0.0000 -0.0000 0.0000 0.6818 64.4845 -3.2329 -22.3595 33.3809 -6.7826 0.0000 -0.0000 -2.9756 0.6045 -31.8557 -0.3190 7.1250 -0.0000 -0.0000 35.9191 -57.9986 -12.4702
1.4201 17.0333 -1.4090 399.9050 85.8188 403.3210 0.0000 0.0000 0.0000 -14.5803 -4.2428 -15.0117 1.7126 8.2398 23.4449 0.3673 3.2113 -13.0842 0.1442 -2.4469 -6.7424 0.0000 0.0000 0.0000 8.2691 -2.1043 16.9821 -0.2829 -3.4210 9.4530 -1.1254 1.6567 -19.5707 -0.2473 3.1998 -8.8355 1.2479 1.0815 7.3857 0.1351 1.7450 6.9965 -0.6311 1.0288 3.1347 2.7379 2.1098 -23.0192 -1.5529 2.9142 29.1885 -0.5159 1.4803 13.8431 -0.0000 0.0000 0.0000 -1.1363 -56.5343 6.1007 24.5542 -35.7448 -8.0280 -0.0000 0.0000 -9.8625 6.3890 -19.6388 -2.1552 -7.1250 0.0000 -0.0000 -14.1197 10.6806 11.6262 -0.0000 0.0000 0.0000 0.8570 64.4737 -2.8836 -22.3437 33.3632 -6.7739 0.0000 -0.0000 -3.0443 1.0398 -31.8162 -0.5482 7.1250 -0.0000 -0.0000 36.2958 -57.8722 -12.5109
1.4920 17.0567 -1.4522 397.8150 85.6912 401.4470 0.0000 0.0000 0.0000 -14.7401 -4.2155 -14.9031 1.7100 8.2340 23.4270 0.3960 3.2035 -13.4990 0.1387 -2.4000 -6.6124 0.0000 0.0000 0.0000 8.0971 -2.0170 16.4602 -0.3271 -3.6762 10.1673 -1.0704 1.7343 -19.0531 -0.1937 2.8344 -7.8181 1.1199 1.0986 7.4485 0.0844 1.7600 6.9334 -0.6155 1.0299 3.0318 2.8875 2.1935 -23.0784 -1.7594 3.0374 29.1149 -0.6009 1.5178 13.8345 -0.0000 -0.0000 0.0000 -1.1595 -56.4881 6.2137 24.5555 -35.7462 -8.0288 -0.0000 0.0000 -9.8071 6.1317 -19.3718 -2.0408 -7.1250 0.0000 -0.0000 -14.2892 10.9588 11.6912 -0.0000 -0.0000 0.0000 1.1263 64.4755 -2.5744 -22.2696 33.2804 -6.7332 0.0000 -0.0000 -2.9369 1.4545 -31.5824 -0.7619 7.1250 -0.0000 -0.0000 36.4713 -57.5938 -12.3296
1.5656 17.0785 -1.4922 395.5370 85.6274 399.3620 0.0000 0.0000 0.0000 -14.8247 -4.1730 -14.6569 1.6744 8.1521 23.1770 0.4073 3.2866 -13.7137 0.1455 -2.4580 -6.7733 0.0000 0.0000 0.0000 8.0904 -1.8884 15.9376 -0.3810 -3.9639 10.9753 -1.0228 1.5587 -18.6570 -0.1702 2.6581 -7.3282 1.0689 1.1385 7.4788 0.0362 1.8065 6.8373 -0.6416 1.0489 2.9151 2.9591 2.1573 -23.0817 -1.8072 2.9760 29.1605 -0.6435 1.4933 13.8553 -0.0000 -0.0000 0.0000 -1.1598 -56.5165 6.5423 24.5468 -35.7372 -8.0237 -0.0000 0.0000 -9.8642 6.3643 -19.1557 -2.0961 -7.1250 0.0000 -0.0000 -14.1462 11.1525 11.5083 -0.0000 -0.0000 0.0000 1.7863 64.3427 -2.0104 -22.2512 33.2598 -6.7231 0.0000 -0.0000 -2.6426 1.8777 -31.6897 -0.9867 7.1250 -0.0000 -0.0000 36.9700 -57.5897 -12.5272
1.6401 17.0995 -1.5313 393.3630 85.5412 397.3530 0.0000 0.0000 0.0000 -14.9261 -4.1254 -14.3143 1.6217 8.0292 22.8029 0.4035 3.4744 -13.7828 0.1841 -2.7632 -7.6201 0.0000 0.0000 0.0000 7.9101 -2.0204 15.2952 -0.4444 -4.2774 11.8583 -0.9550 1.3340 -18.0694 -0.2148 2.9834 -8.2325 1.0098 1.1773 7.4026 -0.0212 1.8515 6.7932 -0.6685 1.0685 2.9119 2.9508 2.1540 -22.8058 -1.7661 2.9603 28.9449 -0.6312 1.4925 13.7035 -0.0000 0.0000 0.0000 -1.0675 -56.4876 6.8073 24.5629 -35.7539 -8.0331 -0.0000 0.0000 -10.1562 6.3397 -19.1373 -2.0860 -7.1250 0.0000 -0.0000 -14.1623 11.1721 11.5164 -0.0000 0.0000 0.0000 2.1629 64.2423 -1.6048 -22.2572 33.2664 -6.7264 0.0000 -0.0000 -2.5686 2.0687 -31.7194 -1.0880 7.1250 -0.0000 -0.0000 37.1773 -57.5725 -12.5953
